<svg width="512" height="512" xmlns="http://www.w3.org/2000/svg">
 <g>
  <title>background</title>
  <rect x="-1" y="-1" width="514" height="514" id="canvas_background" fill="none"/>
 </g>

 <g>
  <title>Layer 1</title>
  <g id="Layer_1" stroke="null">
   <g id="svg_1" stroke="null">
    <circle cx="255.5" cy="255.5" fill="#C75C5C" r="252.5" id="svg_2" stroke="null"/>
   </g>
   <g opacity="0.2" id="svg_3" stroke="null">
    <path d="m413.3125,397.53124c0,17.43039 -14.13211,31.5625 -31.5625,31.5625l-252.5,0c-17.43039,0 -31.5625,-14.13211 -31.5625,-31.5625l0,-220.9375c0,-17.43039 14.13211,-31.5625 31.5625,-31.5625l252.5,0c17.43039,0 31.5625,14.13211 31.5625,31.5625l0,220.9375z" fill="#231F20" id="svg_4" stroke="null"/>
   </g>
   <g id="svg_5" stroke="null">
    <path d="m413.3125,381.74999c0,17.43039 -14.13211,31.5625 -31.5625,31.5625l-252.5,0c-17.43039,0 -31.5625,-14.13211 -31.5625,-31.5625l0,-220.9375c0,-17.43039 14.13211,-31.5625 31.5625,-31.5625l252.5,0c17.43039,0 31.5625,14.13211 31.5625,31.5625l0,220.9375z" fill="#E0E0D1" id="svg_6" stroke="null"/>
   </g>
   <g opacity="0.2" id="svg_7" stroke="null">
    <path d="m413.3125,365.96874c0,17.43039 -14.13211,31.5625 -31.5625,31.5625l-252.5,0c-17.43039,0 -31.5625,-14.13211 -31.5625,-31.5625l0,-220.9375c0,-17.43039 14.13211,-31.5625 31.5625,-31.5625l252.5,0c17.43039,0 31.5625,14.13211 31.5625,31.5625l0,220.9375z" fill="#231F20" id="svg_8" stroke="null"/>
   </g>
   <g id="svg_9" stroke="null">
    <path d="m413.3125,350.18749c0,17.43039 -14.13211,31.5625 -31.5625,31.5625l-252.5,0c-17.43039,0 -31.5625,-14.13211 -31.5625,-31.5625l0,-220.9375c0,-17.43039 14.13211,-31.5625 31.5625,-31.5625l252.5,0c17.43039,0 31.5625,14.13211 31.5625,31.5625l0,220.9375z" fill="#E0E0D1" id="svg_10" stroke="null"/>
   </g>
   <g id="svg_11" stroke="null">
    <rect fill="#4F5D73" height="94.6875" width="94.6875" x="129.25001" y="192.375" id="svg_12" stroke="null"/>
   </g>
   <g id="svg_13" stroke="null">
    <rect fill="#4F5D73" height="7.89062" width="94.6875" x="287.0625" y="216.04687" id="svg_14" stroke="null"/>
   </g>
   <g id="svg_15" stroke="null">
    <rect fill="#4F5D73" height="7.89062" width="94.6875" x="287.0625" y="200.26562" id="svg_16" stroke="null"/>
   </g>
   <g id="svg_17" stroke="null">
    <rect fill="#4F5D73" height="31.5625" width="23.67187" x="255.5" y="192.375" id="svg_18" stroke="null"/>
   </g>
   <g id="svg_19" stroke="null">
    <rect fill="#4F5D73" height="7.89062" width="126.25" x="255.5" y="239.71875" id="svg_20" stroke="null"/>
   </g>
   <g id="svg_21" stroke="null">
    <rect fill="#4F5D73" height="7.89062" width="126.25" x="255.5" y="255.5" id="svg_22" stroke="null"/>
   </g>
   <g id="svg_23" stroke="null">
    <rect fill="#4F5D73" height="7.89062" width="126.25" x="255.5" y="271.28125" id="svg_24" stroke="null"/>
   </g>
   <g id="svg_25" stroke="null">
    <rect fill="#4F5D73" height="7.89062" width="126.25" x="255.5" y="287.06249" id="svg_26" stroke="null"/>
   </g>
   <g id="svg_27" stroke="null">
    <rect fill="#4F5D73" height="7.89062" width="95.67383" x="286.07617" y="310.73437" id="svg_28" stroke="null"/>
   </g>
   <g id="svg_29" stroke="null">
    <rect fill="#4F5D73" height="7.89062" width="94.6875" x="129.25001" y="310.73437" id="svg_30" stroke="null"/>
   </g>
   <g id="svg_31" stroke="null">
    <rect fill="#4F5D73" height="7.89062" width="94.6875" x="129.25001" y="326.51562" id="svg_32" stroke="null"/>
   </g>
   <g id="svg_33" stroke="null">
    <rect fill="#4F5D73" height="7.89062" width="94.6875" x="129.25001" y="342.29687" id="svg_34" stroke="null"/>
   </g>
   <g id="svg_35" stroke="null">
    <rect fill="#4F5D73" height="7.89062" width="94.6875" x="129.25001" y="358.07812" id="svg_36" stroke="null"/>
   </g>
   <g id="svg_37" stroke="null">
    <rect fill="#4F5D73" height="7.89062" width="126.25" x="255.5" y="326.51562" id="svg_38" stroke="null"/>
   </g>
   <g id="svg_39" stroke="null">
    <rect fill="#4F5D73" height="7.89062" width="126.25" x="255.5" y="342.29687" id="svg_40" stroke="null"/>
   </g>
   <g id="svg_41" stroke="null">
    <rect fill="#4F5D73" height="7.89062" width="126.25" x="255.5" y="358.07812" id="svg_42" stroke="null"/>
   </g>
   <g id="svg_43" stroke="null">
    <circle cx="192.375" cy="223.9375" fill="#E0E0D1" r="15.78125" id="svg_44" stroke="null"/>
   </g>
   <g id="svg_45" stroke="null">
    <rect fill="#4F5D73" height="31.5625" width="252.5" x="129.25001" y="129.25" id="svg_46" stroke="null"/>
   </g>
   <g id="svg_47" stroke="null">
    <g id="svg_48" stroke="null">
     <path d="m216.04688,279.17187l0,-19.04797l-6.19414,-6.16258c-3.84273,-3.81906 -10.06844,-3.81906 -13.91117,0l-6.65969,6.62023l-15.21312,-15.11844c-7.70125,-7.65391 -20.19211,-7.65391 -27.90125,0l-9.02687,8.97164l0,24.73711l78.90625,0l-0.00001,0.00001z" fill="#E0E0D1" id="svg_49" stroke="null"/>
    </g>
   </g>
  </g>
  <g id="Layer_2"/>
  <path fill="#c4c43a" stroke="#000000" stroke-width="1.5" d="m465.14603,258.57584l-13.62309,-8.5625c-3.43715,-2.15823 -7.96619,-1.11947 -10.13195,2.31839l-5.36963,8.54652l26.06155,16.36868l5.37386,-8.54256c2.15754,-3.44196 1.12783,-7.97512 -2.31074,-10.12854l0,0l0,0.00001zm-75.50128,76.14049l26.06297,16.36851l42.47831,-67.62206l-26.07537,-16.37278l-42.46591,67.62633l0,0zm-3.98111,20.7968l-0.57564,15.37466l13.60219,-7.19464l12.6403,-6.67404l-25.14378,-15.80121l-0.52307,14.29524l0,0l0,0l0,-0.00001z" id="svg_51" transform="rotate(4.852376937866211 426.8361816406241,309.8877868652343) " stroke-opacity="0"/>
 </g>
</svg>